# xmcd
#
# Track frame offsets: 
#        150
#        16348
#        33688
#        58593
#        78551
#        100609
#        118188
#        141897
#
# Disc length: 2150 seconds
#
# Revision: 1
# Processed by: cddbd v1.5.2PL0 Copyright (c) Steve Scherf et al.
# Submitted via: ExactAudioCopyFreeDBPlugin 1.0
#
DISCID=67086408
DTITLE=Gary Clark Jr. - Tribute
DYEAR=2005
DGENRE=Blues
TTITLE0=Tribute to Albert Collins
TTITLE1=Shame, Shame, Shame
TTITLE2=Sick Feelin' Blues
TTITLE3=Whole Lotta Lovin'
TTITLE4=Catfish Blues
TTITLE5=My Baby's Gone
TTITLE6=Like a Hound Dog
TTITLE7=Don't Throw Your Love on Me So Strong
EXTD=YEAR: 2005
EXTT0=
EXTT1=
EXTT2=
EXTT3=
EXTT4=
EXTT5=
EXTT6=
EXTT7=
PLAYORDER=
